<svg width="24" height="24" viewBox="0 0 24 24" fill="none" xmlns="http://www.w3.org/2000/svg">
<g clip-path="url(#clip0_1_15966)">
<path d="M19.5145 14.7513V11.0196C19.5144 10.6291 19.1979 10.3126 18.8074 10.3126H0.76175C0.371281 10.3126 0.0546875 10.6291 0.0546875 11.0196V14.7513C0.0546875 18.0486 1.87977 20.948 4.6198 22.5859H0.762172C0.371703 22.5859 0.0551094 22.9024 0.0551094 23.2929C0.0551094 23.6834 0.371609 24 0.762172 24H18.8075C19.1979 24 19.5145 23.6834 19.5145 23.2929C19.5145 22.9025 19.198 22.5859 18.8075 22.5859H14.9494C17.6893 20.948 19.5145 18.0486 19.5145 14.7513ZM20.9285 11.5851V13.0304C21.8513 13.2842 22.5314 14.1302 22.5314 15.1325C22.5314 16.2482 21.6888 17.1703 20.6067 17.2972C20.4813 17.785 20.3201 18.2628 20.1245 18.7268H20.3512C22.3331 18.7268 23.9455 17.1144 23.9455 15.1325C23.9455 13.3471 22.6368 11.8622 20.9285 11.5851ZM14.7152 4.62548C15.6378 3.88021 15.8467 3.08352 15.8594 2.54638C15.8904 1.23965 14.8586 0.283398 14.7408 0.178726C14.449 -0.080774 14.0021 -0.0546178 13.7426 0.237179C13.4831 0.528976 13.5092 0.975835 13.801 1.23538C13.8076 1.24129 14.4613 1.85291 14.4457 2.51287C14.4373 2.86448 14.2348 3.1957 13.8266 3.52546C12.904 4.27073 12.6951 5.06741 12.6824 5.60455C12.6514 6.91129 13.6833 7.86754 13.801 7.97226C13.9308 8.08791 14.0986 8.15172 14.2725 8.15151C14.4673 8.15151 14.6612 8.07182 14.8006 7.91502C15.0601 7.62323 15.0354 7.17759 14.7436 6.91809C14.558 6.74934 14.08 6.18951 14.0962 5.63277C14.1065 5.28313 14.309 4.9536 14.7152 4.62548ZM10.2291 4.62548C11.1517 3.88021 11.3606 3.08352 11.3733 2.54638C11.4043 1.23965 10.3724 0.283398 10.2546 0.178726C9.96294 -0.080774 9.51598 -0.0546178 9.25644 0.237179C8.99694 0.528976 9.02309 0.975835 9.31489 1.23538C9.3215 1.24129 9.97522 1.85291 9.95956 2.51287C9.95122 2.86448 9.74872 3.1957 9.34048 3.52546C8.41789 4.27073 8.20902 5.06741 8.19631 5.60455C8.16528 6.91129 9.19714 7.86754 9.31489 7.97226C9.44468 8.08791 9.61252 8.15172 9.78636 8.15151C9.98117 8.15151 10.1751 8.07182 10.3145 7.91502C10.574 7.62323 10.5492 7.17759 10.2575 6.91809C10.0719 6.74934 9.59384 6.18951 9.61011 5.63277C9.62037 5.28313 9.82283 4.9536 10.2291 4.62548ZM5.74288 4.62552C6.66547 3.88026 6.87434 3.08357 6.88705 2.54643C6.91808 1.23969 5.88622 0.283445 5.76842 0.178773C5.47667 -0.0807271 5.02977 -0.0545709 4.77022 0.237226C4.51072 0.528976 4.53688 0.975882 4.82867 1.23543C4.83528 1.24134 5.489 1.85296 5.47334 2.51291C5.465 2.86452 5.2625 3.19574 4.85427 3.52551C3.93167 4.27077 3.7228 5.06746 3.71009 5.6046C3.67911 6.91129 4.71097 7.86754 4.82872 7.97226C4.95797 8.08755 5.12516 8.15118 5.29836 8.15099C5.39824 8.15113 5.49701 8.13006 5.58814 8.08917C5.67926 8.04828 5.76067 7.98851 5.82697 7.9138C6.08647 7.62201 6.06031 7.17515 5.76852 6.9156C5.76191 6.9097 5.10819 6.29807 5.12384 5.63812C5.13214 5.28651 5.33464 4.95524 5.74288 4.62552Z" fill="white"/>
</g>
<defs>
<clipPath id="clip0_1_15966">
<rect width="24" height="24" fill="white"/>
</clipPath>
</defs>
</svg>
