<svg width="24" height="24" viewBox="0 0 24 24" fill="none" xmlns="http://www.w3.org/2000/svg">
<g clip-path="url(#clip0_1_15972)">
<path d="M22.8965 12.0008L23.9494 9.25453C24.0649 8.95155 23.9749 8.60807 23.7214 8.40259L21.4386 6.55171L20.9766 3.64641C20.9256 3.32543 20.6736 3.07495 20.3527 3.02396L17.4474 2.56199L15.598 0.277643C15.394 0.0241601 15.043 -0.0658337 14.7475 0.0496584L11.9997 1.10409L9.25342 0.0511583C8.94894 -0.0658337 8.60846 0.0271599 8.40298 0.279143L6.5521 2.56349L3.6468 3.02545C3.49078 3.05058 3.34664 3.12426 3.23489 3.236C3.12315 3.34775 3.04947 3.49189 3.02434 3.64791L2.56238 6.55321L0.278033 8.40409C0.0260501 8.60807 -0.0654437 8.95155 0.0500484 9.25453L1.10298 12.0008L0.0500484 14.7472C-0.0669436 15.0501 0.0260501 15.3936 0.278033 15.5976L2.56238 17.447L3.02434 20.3523C3.07534 20.6732 3.32582 20.9252 3.6468 20.9762L6.5521 21.4382L8.40298 23.721C8.50235 23.8446 8.63849 23.9333 8.79167 23.9743C8.94485 24.0153 9.10711 24.0065 9.25492 23.949L11.9997 22.8976L14.746 23.9505C14.8318 23.9832 14.9228 24 15.0145 24C15.235 24 15.4525 23.9025 15.598 23.721L17.4474 21.4382L20.3527 20.9762C20.5092 20.9513 20.6538 20.8776 20.7659 20.7655C20.878 20.6534 20.9517 20.5088 20.9766 20.3523L21.4386 17.447L23.7214 15.5976C23.9749 15.3921 24.0649 15.0501 23.9494 14.7472L22.8965 12.0008Z" fill="white"/>
<path d="M9.74985 10.501C8.50943 10.501 7.5 9.49158 7.5 8.25117C7.5 7.01075 8.50943 6.00132 9.74985 6.00132C10.9903 6.00132 11.9997 7.01075 11.9997 8.25117C11.9997 9.49158 10.9903 10.501 9.74985 10.501ZM9.74985 7.50122C9.33587 7.50122 8.9999 7.83719 8.9999 8.25117C8.9999 8.66514 9.33587 9.00111 9.74985 9.00111C10.1638 9.00111 10.4998 8.66514 10.4998 8.25117C10.4998 7.83719 10.1638 7.50122 9.74985 7.50122ZM14.2495 18.0005C13.0091 18.0005 11.9997 16.9911 11.9997 15.7507C11.9997 14.5102 13.0091 13.5008 14.2495 13.5008C15.49 13.5008 16.4994 14.5102 16.4994 15.7507C16.4994 16.9911 15.49 18.0005 14.2495 18.0005ZM14.2495 15.0007C13.8371 15.0007 13.4996 15.3382 13.4996 15.7507C13.4996 16.1631 13.8371 16.5006 14.2495 16.5006C14.662 16.5006 14.9995 16.1631 14.9995 15.7507C14.9995 15.3382 14.662 15.0007 14.2495 15.0007ZM8.24995 18.0005C8.09846 18.0005 7.94697 17.9555 7.81498 17.861C7.4775 17.6195 7.39951 17.1516 7.64099 16.8141L15.1405 6.3148C15.382 5.97732 15.8499 5.89933 16.1874 6.14081C16.5249 6.38079 16.6014 6.85026 16.3614 7.18624L8.86191 17.6855C8.71342 17.891 8.48393 18.0005 8.24995 18.0005Z" fill="#A72C2C"/>
</g>
<defs>
<clipPath id="clip0_1_15972">
<rect width="24" height="24" fill="white"/>
</clipPath>
</defs>
</svg>
