<svg width="24" height="24" viewBox="0 0 24 24" fill="none" xmlns="http://www.w3.org/2000/svg">
<g clip-path="url(#clip0_1_15979)">
<path d="M23.3621 8.58405L15.9841 7.45705L12.6771 0.413055C12.4301 -0.112945 11.5671 -0.112945 11.3201 0.413055L8.01412 7.45705L0.636118 8.58405C0.499895 8.60498 0.372073 8.66304 0.266685 8.75185C0.161297 8.84067 0.0824196 8.95681 0.0387128 9.08751C-0.00499396 9.21822 -0.0118398 9.35844 0.0189269 9.49279C0.0496936 9.62713 0.116883 9.7504 0.213118 9.84905L5.57312 15.3431L4.30612 23.1101C4.28349 23.249 4.30041 23.3914 4.35493 23.5212C4.40946 23.6509 4.49939 23.7627 4.61444 23.8438C4.7295 23.9248 4.86504 23.9719 5.00556 23.9795C5.14609 23.9872 5.28594 23.9551 5.40912 23.8871L11.9991 20.2451L18.5891 23.8881C18.7123 23.9561 18.8521 23.9882 18.9927 23.9805C19.1332 23.9729 19.2687 23.9258 19.3838 23.8448C19.4988 23.7637 19.5888 23.6519 19.6433 23.5222C19.6978 23.3924 19.7147 23.25 19.6921 23.1111L18.4251 15.3441L23.7851 9.85005C23.8816 9.75143 23.9491 9.62808 23.98 9.4936C24.0109 9.35911 24.0042 9.2187 23.9604 9.08781C23.9167 8.95693 23.8377 8.84064 23.7321 8.75176C23.6266 8.66288 23.4985 8.60485 23.3621 8.58405Z" fill="white"/>
</g>
<defs>
<clipPath id="clip0_1_15979">
<rect width="24" height="24" fill="white"/>
</clipPath>
</defs>
</svg>
