<svg width="24" height="24" viewBox="0 0 24 24" fill="none" xmlns="http://www.w3.org/2000/svg">
<g clip-path="url(#clip0_1_15985)">
<path d="M9.49594 2.17183C8.83547 2.17183 8.29828 2.70808 8.29828 3.36761V4.09324H10.6941V3.36761C10.6941 2.70808 10.1564 2.17183 9.49594 2.17183ZM8.29828 4.84277H10.6941V9.17261H8.29828V4.84277ZM11.4441 9.17261H18.9923V5.04011C18.9923 4.93136 18.9038 4.84277 18.7945 4.84277H11.4441V9.17261ZM11.4441 4.09277H15.3548C16.0763 4.09277 16.5197 3.60527 16.695 3.14917C16.8736 2.68324 16.8717 2.01199 16.3308 1.52589C15.9188 1.15511 15.3863 1.05667 14.8688 1.25542L11.2973 2.62605C11.3947 2.86115 11.4447 3.11315 11.4445 3.36761V4.09277H11.4441ZM0 5.04011V9.17261H7.54828V4.84277H0.197812C0.0885937 4.84277 0 4.93136 0 5.04011ZM0.70875 20.3429C0.70875 20.8909 1.15547 21.3367 1.70438 21.3367H7.54828V9.92261H0.70875V20.3429ZM13.507 19.5671C13.507 19.4668 13.4822 19.3904 13.4245 19.3121L12.7997 18.4529C12.4913 18.0268 12.4913 17.4779 12.7997 17.0537L13.4236 16.1964C13.4827 16.1157 13.5075 16.0384 13.5075 15.9381V14.8787C13.5075 14.3542 13.8305 13.9098 14.3306 13.7467L15.3398 13.42C15.435 13.3885 15.5011 13.3407 15.5583 13.261L16.1831 12.4018C16.4944 11.9771 17.0166 11.8084 17.5148 11.9706L18.2855 12.2204V9.92214H11.4441V21.3362H13.7362C13.59 21.1384 13.507 20.8937 13.507 20.6279V19.5671ZM2.66203 1.52589C2.12109 2.01245 2.11875 2.68324 2.29734 3.14917C2.47219 3.60527 2.91656 4.09324 3.63891 4.09324H7.54828V3.36761C7.54828 3.10511 7.60078 2.8548 7.69547 2.62605L4.12406 1.25542C3.60703 1.05667 3.07406 1.15511 2.66203 1.52589ZM8.29828 9.92261H10.6941V21.3367H8.29828V9.92261ZM17.4319 17.0064V16.3689C17.4319 16.2836 17.3592 16.2114 17.2734 16.2114C17.1863 16.2114 17.115 16.2821 17.115 16.3689V17.0059C17.115 17.0912 17.1877 17.1634 17.2734 17.1634C17.3592 17.1634 17.4319 17.0917 17.4319 17.0064ZM20.0461 18.3432C19.9589 18.3432 19.8877 18.414 19.8877 18.5007V19.1378C19.8877 19.2231 19.9603 19.2953 20.0461 19.2953C20.1319 19.2953 20.2045 19.2231 20.2045 19.1378V18.5007C20.2041 18.4154 20.1319 18.3432 20.0461 18.3432Z" fill="white"/>
<path d="M23.9139 17.4962L23.2896 16.6379C23.1363 16.4246 23.0622 16.1964 23.0622 15.9385V14.8792C23.0622 14.6823 22.9455 14.5215 22.7575 14.4601L21.7488 14.1343C21.5004 14.0523 21.3063 13.9107 21.1539 13.7017L20.53 12.8439C20.4138 12.6845 20.2249 12.6235 20.0374 12.6845L19.0286 13.0121C18.7797 13.0923 18.5397 13.0923 18.2936 13.0121L17.2839 12.6845C17.0964 12.6231 16.9071 12.6849 16.7899 12.8448L16.1669 13.7012C16.0174 13.9093 15.8229 14.0514 15.5739 14.1334L14.5633 14.4606C14.3758 14.522 14.2586 14.6823 14.2586 14.8792V15.9385C14.2586 16.1992 14.1841 16.4284 14.0313 16.6384L13.4069 17.4953C13.2911 17.6542 13.2916 17.8524 13.4074 18.0123L14.0308 18.8692C14.1832 19.0764 14.2582 19.3051 14.2582 19.5671V20.6279C14.2582 20.8248 14.3749 20.9846 14.5624 21.0451L15.5721 21.3732C15.8154 21.4515 16.016 21.5968 16.1669 21.8045L16.7904 22.6618C16.9066 22.8212 17.096 22.8826 17.2844 22.8221L18.2936 22.4945C18.4169 22.4546 18.5388 22.4345 18.6607 22.4345C18.7825 22.4345 18.9039 22.4542 19.0277 22.494L20.0369 22.8221C20.2249 22.8826 20.4143 22.8217 20.5296 22.6623L21.1539 21.804C21.31 21.5921 21.5046 21.4515 21.7497 21.3723L22.7589 21.0446C22.9464 20.9842 23.0627 20.8243 23.0627 20.6274V19.5667C23.0627 19.3074 23.1368 19.0792 23.29 18.8687L23.9139 18.0109C24.0297 17.852 24.0297 17.6546 23.9139 17.4962ZM16.3661 17.0064V16.3689C16.3661 15.8682 16.7735 15.4614 17.2746 15.4614C17.7757 15.4614 18.183 15.8682 18.183 16.3689V17.0059C18.183 17.5065 17.7757 17.9134 17.2746 17.9134C16.7735 17.9134 16.3661 17.5065 16.3661 17.0064ZM17.5797 19.861C17.5061 19.9614 17.3922 20.0143 17.2769 20.0143C17.2 20.0143 17.1222 19.9909 17.0557 19.9417C16.8888 19.8193 16.8522 19.5845 16.975 19.4176L19.7402 15.6446C19.8625 15.4778 20.0974 15.4412 20.2643 15.564C20.4311 15.6864 20.4677 15.9212 20.3449 16.0881L17.5797 19.861ZM20.9547 19.1378C20.9547 19.6384 20.5474 20.0453 20.0463 20.0453C19.5452 20.0453 19.1379 19.6379 19.1379 19.1378V18.5007C19.1379 18.0001 19.5452 17.5932 20.0463 17.5932C20.5474 17.5932 20.9547 18.0006 20.9547 18.5007V19.1378Z" fill="white"/>
</g>
<defs>
<clipPath id="clip0_1_15985">
<rect width="24" height="24" fill="white"/>
</clipPath>
</defs>
</svg>
