<svg width="22" height="9" viewBox="0 0 22 9" fill="none" xmlns="http://www.w3.org/2000/svg">
<path d="M5.73991 1.68945V0.783874V1.68945ZM20.2292 2.59503C20.7293 2.59503 21.1348 2.18959 21.1348 1.68945C21.1348 1.18932 20.7293 0.783874 20.2292 0.783874V1.68945V2.59503ZM0.910156 8.93409H1.81574V6.51921H0.910156H0.00457686V8.93409H0.910156ZM0.910156 6.51921H1.81574C1.81574 5.47845 2.22917 4.48032 2.9651 3.7444L2.32476 3.10406L1.68442 2.46371C0.608833 3.5393 0.00457686 4.9981 0.00457686 6.51921H0.910156ZM2.32476 3.10406L2.9651 3.7444C3.70103 3.00847 4.69916 2.59503 5.73991 2.59503V1.68945V0.783874C4.21881 0.783874 2.76 1.38813 1.68442 2.46371L2.32476 3.10406ZM5.73991 1.68945V2.59503H20.2292V1.68945V0.783874H5.73991V1.68945Z" fill="black"/>
</svg>
